<svg xmlns="http://www.w3.org/2000/svg" viewBox="0 0 1000 286.6" width="1000" height="286.6">
  <rect width="1000" height="286.6" fill="#f8f5ea"/>
  <g transform="translate(310 58)">
    <rect width="141" height="141" fill="#34412b"/>
    <circle cx="70.5" cy="70.5" r="49" fill="#f8f5ea"/>
    <g fill="#34412b" transform="translate(36 34)">
      <path d="M31 6c4.2-4.2 10.6 2.2 6.4 6.4L17.7 32.1c-4.2 4.2-10.6-2.2-6.4-6.4z"/>
      <path d="M57 6c4.2-4.2 10.6 2.2 6.4 6.4L43.7 32.1c-4.2 4.2-10.6-2.2-6.4-6.4z"/>
      <path d="M39 38c4.2-4.2 10.6 2.2 6.4 6.4L25.7 64.1c-4.2 4.2-10.6-2.2-6.4-6.4z"/>
      <path d="M65 38c4.2-4.2 10.6 2.2 6.4 6.4L51.7 64.1c-4.2 4.2-10.6-2.2-6.4-6.4z"/>
    </g>
  </g>
  <text x="475" y="125" fill="#34412b" font-family="Arial, Helvetica, sans-serif" font-size="54" font-weight="700">FS Support</text>
  <text x="478" y="170" fill="#34412b" font-family="Arial, Helvetica, sans-serif" font-size="24">Assistance à distance FS Solutions</text>
</svg>
